<?xml version="1.0" standalone="no"?>
<!DOCTYPE svg PUBLIC "-//W3C//DTD SVG 20010904//EN"
 "http://www.w3.org/TR/2001/REC-SVG-20010904/DTD/svg10.dtd">
<svg version="1.0" xmlns="http://www.w3.org/2000/svg"
 width="600.000000pt" height="400.000000pt" viewBox="0 0 600.000000 400.000000"
 preserveAspectRatio="xMidYMid meet">
<g transform="translate(0.000000,400.000000) scale(0.100000,-0.100000)"
fill="#000000" stroke="none">
<path d="M2195 2993 c-16 -2 -52 -10 -80 -18 -27 -8 -57 -13 -65 -12 -8 1 -16
-2 -17 -7 -2 -10 -24 -26 -37 -26 -5 0 -3 6 3 14 23 28 -140 -65 -176 -100 -7
-7 -16 -14 -21 -16 -22 -9 -97 -114 -140 -197 -28 -53 -53 -88 -57 -82 -11 18
-3 103 14 146 23 59 67 120 117 161 49 40 60 64 17 37 -62 -38 -149 -136 -137
-154 3 -5 1 -9 -5 -9 -6 0 -7 -7 -4 -17 5 -11 3 -14 -6 -8 -10 5 -11 2 -6 -14
3 -11 2 -21 -3 -21 -5 0 -8 -39 -7 -87 1 -72 5 -96 25 -133 24 -45 24 -45 31
10 16 118 73 223 186 341 40 42 69 80 65 84 -4 5 -1 5 6 1 7 -4 24 2 38 13 15
11 30 18 35 15 4 -2 26 4 47 15 110 56 308 72 429 33 163 -52 301 -167 371
-312 23 -47 47 -115 54 -152 12 -66 28 -73 28 -13 0 24 -2 27 -11 15 -7 -11
-8 -6 -4 19 6 26 4 32 -6 26 -9 -6 -11 -2 -7 13 4 12 2 22 -4 22 -6 0 -7 8 -4
17 4 10 4 14 0 10 -4 -3 -17 15 -29 41 -35 74 -136 194 -200 237 -135 89 -291
128 -440 108z"/>
<path d="M3085 2951 c-19 -5 13 -8 90 -7 144 0 191 -9 410 -79 11 -3 2 4 -19
15 -94 53 -388 96 -481 71z"/>
<path d="M2975 2936 c-11 -8 -25 -12 -32 -9 -7 3 -13 1 -13 -4 0 -5 -15 -9
-34 -10 -20 -1 -56 -15 -90 -37 -31 -20 -61 -36 -66 -36 -17 0 -12 -11 32 -69
57 -76 58 -77 52 -54 -13 47 196 127 326 125 90 -1 164 -7 205 -17 90 -21 225
-73 225 -87 0 -5 7 -8 16 -8 17 0 104 -58 117 -77 4 -7 13 -13 18 -13 15 0 79
-65 79 -80 0 -6 5 -8 10 -5 6 3 10 -1 10 -9 0 -8 9 -20 20 -26 11 -6 20 -18
20 -28 0 -9 15 -32 34 -49 33 -33 79 -43 120 -27 30 12 16 24 -27 24 -40 0
-45 3 -61 37 -37 78 -141 194 -226 253 -157 107 -330 163 -505 164 -156 0
-305 -43 -361 -105 -15 -17 -17 -17 -40 10 -25 30 -31 51 -14 51 6 0 28 11 50
25 43 27 55 31 44 14 -3 -6 7 -4 22 4 16 8 43 18 60 21 17 4 31 13 31 21 0 18
1 18 -22 1z m387 -82 c39 -9 85 -23 102 -31 36 -16 18 -13 -74 13 -30 9 -113
19 -185 23 -130 8 -130 8 -22 9 69 1 134 -4 179 -14z m-299 -1 c-7 -2 -19 -2
-25 0 -7 3 -2 5 12 5 14 0 19 -2 13 -5z"/>
<path d="M3015 2940 c-3 -5 3 -10 15 -10 12 0 18 5 15 10 -3 6 -10 10 -15 10
-5 0 -12 -4 -15 -10z"/>
<path d="M2173 2929 c-111 -19 -239 -86 -315 -165 -78 -82 -151 -243 -163
-359 -5 -45 -3 -43 14 23 77 303 292 469 579 449 143 -10 295 -82 261 -123 -7
-9 -29 -24 -49 -34 -21 -11 -65 -47 -99 -81 -49 -50 -74 -87 -121 -185 -33
-67 -60 -128 -60 -136 0 -7 -6 -22 -13 -33 -7 -11 -26 -54 -42 -95 -16 -41
-33 -76 -37 -78 -5 -2 -8 -11 -8 -19 0 -9 -11 -40 -25 -70 -14 -29 -36 -77
-50 -106 -25 -54 -54 -91 -77 -100 -17 -6 -9 -13 24 -21 25 -6 30 -1 72 75 53
94 103 203 176 384 74 183 132 292 190 357 51 57 173 143 190 133 5 -3 -14
-36 -42 -73 -57 -75 -97 -157 -153 -312 -81 -227 -144 -349 -255 -500 -34 -45
-59 -84 -56 -87 7 -7 156 -24 175 -20 9 2 -15 7 -54 11 -113 12 -112 10 -41
98 68 84 136 208 184 333 17 44 52 133 77 198 64 163 159 307 185 281 26 -26
53 -134 57 -234 6 -112 -6 -189 -49 -319 -41 -125 -125 -240 -228 -309 -29
-19 -30 -22 -10 -16 14 4 30 7 37 7 7 0 10 4 7 9 -4 5 0 8 8 6 36 -8 141 110
199 225 68 133 103 348 80 483 -21 120 -63 205 -136 273 -123 114 -266 158
-432 130z m142 -24 c-5 -2 -50 -5 -100 -8 -49 -2 -79 -1 -65 3 24 8 186 12
165 5z"/>
<path d="M1705 2900 c-16 -11 -37 -20 -46 -20 -34 0 -149 -115 -149 -148 0 -5
-5 -13 -12 -20 -15 -15 -17 -27 -26 -134 -4 -49 -4 -89 0 -90 4 -2 10 -19 13
-38 3 -19 10 -36 16 -38 5 -2 9 -9 9 -16 0 -6 14 -28 31 -49 21 -26 35 -58 45
-105 26 -123 85 -210 177 -261 45 -25 128 -29 147 -6 11 13 7 15 -26 15 -22 0
-55 5 -75 10 -91 25 -181 157 -183 267 -1 53 -4 60 -33 82 -80 59 -104 227
-52 367 21 55 90 129 162 173 20 12 37 25 37 27 0 6 -3 5 -35 -16z"/>
<path d="M3630 2846 c0 -3 14 -12 30 -21 17 -9 30 -13 30 -11 0 3 -13 12 -30
21 -16 9 -30 13 -30 11z"/>
<path d="M3780 2778 c0 -2 33 -33 73 -68 60 -52 64 -55 27 -16 -41 43 -100 93
-100 84z"/>
<path d="M3960 2590 c6 -11 13 -20 16 -20 2 0 0 9 -6 20 -6 11 -13 20 -16 20
-2 0 0 -9 6 -20z"/>
<path d="M3173 2579 c-48 -18 -133 -94 -133 -118 0 -19 32 -41 61 -41 58 0
124 47 164 116 36 63 1 79 -92 43z m81 -21 c-42 -84 -130 -134 -163 -94 -10
11 -3 21 33 50 45 38 111 75 134 76 9 0 8 -8 -4 -32z"/>
<path d="M2017 2443 c-20 -19 -37 -39 -37 -44 0 -5 -7 -9 -15 -9 -8 0 -15 -4
-15 -8 0 -11 -65 -41 -111 -53 -28 -6 -24 -7 21 -4 30 2 56 4 58 5 1 2 6 3 12
4 5 0 18 9 30 18 11 10 20 16 20 14 0 -9 68 61 79 81 19 36 -3 34 -42 -4z"/>
<path d="M2069 2428 c-39 -94 -139 -157 -254 -160 -70 -2 -70 -2 0 -8 70 -6
70 -6 0 -8 -38 0 -79 3 -90 8 -20 9 -20 9 0 10 20 1 20 1 0 10 -39 17 -47 12
-40 -22 4 -18 10 -37 13 -43 3 -5 7 -20 8 -34 2 -13 8 -29 14 -35 8 -8 9 -4 1
16 -10 27 -6 57 8 59 3 1 35 2 71 3 86 3 171 45 227 113 39 47 70 109 61 119
-3 2 -11 -10 -19 -28z"/>
<path d="M2896 2349 c-14 -187 -82 -324 -238 -475 -87 -85 -145 -121 -242
-149 -68 -20 -201 -22 -294 -5 -62 11 -63 11 -120 -24 -93 -56 -158 -77 -258
-83 -77 -5 -97 -3 -137 15 -104 46 -115 147 -23 203 28 17 29 19 8 19 -30 0
-90 -57 -101 -97 -7 -24 -4 -42 13 -80 40 -84 138 -120 263 -98 80 14 105 24
97 36 -3 5 2 6 10 3 8 -3 53 14 99 39 85 44 85 44 168 30 131 -22 267 -6 360
43 165 85 338 301 384 479 16 59 33 235 23 235 -3 0 -8 -41 -12 -91z m-653
-656 c-13 -2 -33 -2 -45 0 -13 2 -3 4 22 4 25 0 35 -2 23 -4z m-498 -91 c55 3
91 2 80 -3 -35 -14 -183 -10 -220 5 -19 8 -35 17 -35 20 0 3 17 -2 38 -11 28
-12 60 -14 137 -11z"/>
<path d="M3406 2383 c-3 -4 -16 -8 -27 -10 -52 -8 -103 -68 -144 -172 -50
-129 -163 -314 -213 -349 -47 -34 -59 -16 -37 55 10 32 21 63 25 68 3 6 15 33
25 60 28 78 66 158 83 178 8 9 12 17 8 17 -3 0 7 27 24 60 17 34 28 65 25 69
-7 12 -65 19 -71 9 -3 -5 -15 -6 -26 -2 -32 10 -97 -67 -137 -161 -18 -44 -41
-98 -51 -120 -44 -99 -55 -142 -55 -215 0 -90 22 -129 81 -148 32 -10 42 -8
83 13 25 13 60 37 77 54 18 16 35 27 39 23 4 -4 5 0 3 8 -6 30 27 14 43 -20
26 -55 52 -72 107 -73 89 -1 158 58 269 233 92 145 139 255 148 343 4 43 1 35
-19 -41 -49 -184 -226 -459 -315 -487 -12 -3 -19 -10 -17 -14 9 -14 -95 6
-110 21 -33 32 -36 116 -8 213 3 11 -14 -14 -39 -55 -65 -109 -112 -157 -177
-180 -61 -22 -96 -25 -105 -10 -4 7 3 9 22 5 25 -5 26 -4 7 6 -30 16 -54 62
-54 106 0 36 30 128 101 313 31 81 69 156 69 136 0 -5 11 1 24 13 13 12 42 25
64 28 40 5 40 5 -13 -101 -69 -141 -148 -351 -149 -400 -1 -55 22 -68 60 -33
16 15 37 30 46 33 31 9 164 232 214 358 26 66 89 147 124 158 8 3 12 8 9 12
-3 3 -9 3 -13 -1z m-97 -639 c9 -8 -75 -3 -88 5 -8 5 5 7 35 4 27 -3 51 -7 53
-9z"/>
<path d="M3650 2373 c0 -4 -12 -9 -26 -10 -73 -4 -127 -95 -129 -218 -2 -91
-3 -95 -66 -190 -66 -99 -122 -145 -132 -107 -3 12 -5 11 -6 -5 -2 -32 29 -46
53 -25 11 10 16 11 11 3 -5 -8 2 -7 20 5 32 21 89 96 136 179 30 53 34 68 34
140 1 103 30 169 89 201 22 13 33 24 27 28 -6 4 -11 4 -11 -1z m-40 -26 c0 -2
-12 -14 -27 -28 -28 -24 -28 -24 -4 4 23 25 31 32 31 24z"/>
<path d="M3985 2365 c-27 -7 -53 -11 -57 -9 -33 20 -172 -112 -219 -208 -62
-124 -70 -146 -84 -212 -18 -83 -8 -136 36 -176 56 -53 123 -45 219 28 52 39
90 46 90 15 0 -25 31 -61 62 -72 55 -20 104 3 186 88 40 41 80 90 89 110 8 20
35 78 60 129 25 52 43 95 41 98 -2 2 -33 -56 -69 -129 -51 -105 -76 -144 -125
-194 -51 -52 -68 -63 -105 -69 -35 -6 -40 -9 -24 -16 14 -6 6 -7 -24 -4 -24 2
-48 9 -53 14 -5 5 4 7 22 4 32 -5 32 -5 6 21 -23 23 -26 34 -26 96 0 38 4 82
10 98 8 24 8 25 -3 9 -74 -115 -97 -143 -139 -177 -56 -44 -105 -57 -149 -39
-49 21 -62 49 -57 132 9 157 134 365 257 427 23 12 67 28 99 35 31 8 46 14 32
14 -14 1 -47 -5 -75 -13z m-95 -39 c0 -2 -8 -10 -17 -17 -16 -13 -17 -12 -4 4
13 16 21 21 21 13z m-145 -577 c40 -6 40 -6 4 -8 -19 0 -44 6 -55 15 -10 8
-12 12 -4 8 8 -5 33 -11 55 -15z"/>
<path d="M4246 2368 c-9 -5 -21 -6 -26 -3 -15 10 -50 -14 -44 -30 5 -12 9 -12
31 2 14 9 41 19 61 23 30 5 33 7 16 12 -12 3 -29 1 -38 -4z"/>
<path d="M3435 2334 c-9 -22 -25 -64 -35 -94 -10 -30 -39 -113 -64 -185 -25
-71 -45 -143 -45 -160 2 -27 2 -27 6 -5 6 34 42 148 59 187 8 17 14 34 14 37
0 3 8 25 19 49 32 71 74 198 68 204 -3 3 -13 -12 -22 -33z"/>
<path d="M4048 2321 c-89 -57 -174 -164 -245 -311 -55 -113 -57 -211 -4 -209
11 0 9 3 -6 9 -28 12 -30 20 -3 13 11 -3 26 0 34 6 8 7 20 10 27 9 22 -5 145
159 198 265 28 56 65 128 83 161 31 56 32 59 13 72 -27 20 -46 17 -97 -15z
m42 -32 c0 -11 -52 -112 -123 -239 -63 -113 -154 -216 -181 -207 -20 7 -8 84
24 148 63 124 151 239 220 285 39 25 60 30 60 13z"/>
<path d="M4266 2292 c-56 -93 -122 -232 -145 -306 -30 -96 -28 -186 4 -186 29
0 131 130 188 239 32 61 64 111 70 111 8 0 8 3 -1 12 -22 22 -56 -7 -91 -78
-64 -131 -138 -234 -169 -234 -20 0 -11 89 13 145 36 81 119 250 130 265 27
35 56 90 47 90 -6 0 -27 -26 -46 -58z"/>
<path d="M1768 2333 c7 -3 16 -2 19 1 4 3 -2 6 -13 5 -11 0 -14 -3 -6 -6z"/>
<path d="M1747 2099 c7 -7 15 -10 18 -7 3 3 -2 9 -12 12 -14 6 -15 5 -6 -5z"/>
<path d="M1790 2066 c0 -2 8 -10 18 -17 15 -13 16 -12 3 4 -13 16 -21 21 -21
13z"/>
<path d="M1645 1869 c-4 -5 22 -9 61 -9 37 0 65 2 63 4 -10 9 -119 14 -124 5z"/>
<path d="M1790 1858 c8 -9 153 -48 158 -43 2 2 -20 11 -49 19 -75 21 -115 30
-109 24z"/>
<path d="M1725 1810 c27 -8 26 -9 -12 -6 -53 5 -73 -15 -73 -72 0 -42 26 -73
60 -71 13 0 13 1 0 6 -47 18 -67 77 -34 104 33 27 168 8 215 -30 23 -19 23
-19 -21 -41 -25 -13 -39 -25 -32 -27 16 -6 144 58 150 75 2 6 -3 12 -12 12 -9
0 -55 11 -102 25 -84 24 -210 47 -139 25z"/>
<path d="M2355 1779 c-11 -16 -1 -19 13 -3 7 8 8 14 3 14 -5 0 -13 -5 -16 -11z"/>
<path d="M1790 1670 c-13 -8 -12 -10 3 -10 9 0 17 5 17 10 0 12 -1 12 -20 0z"/>
<path d="M4061 1664 c13 -16 29 -19 29 -5 0 5 -9 11 -21 14 -16 4 -18 3 -8 -9z"/>
<path d="M3983 1638 c-6 -13 -19 -41 -28 -63 -23 -53 -104 -170 -152 -220 -43
-45 -122 -115 -129 -115 -12 0 -73 -47 -68 -53 9 -9 -55 -39 -68 -31 -6 4 -8
3 -5 -3 8 -13 -50 -36 -66 -26 -6 4 -7 1 -2 -7 6 -9 2 -10 -15 -5 -17 5 -21 4
-15 -6 6 -9 2 -11 -13 -7 -12 4 -20 2 -17 -2 14 -22 -166 -50 -321 -50 -135 0
-204 10 -318 46 -100 32 -122 26 -29 -9 220 -81 510 -77 738 12 172 66 344
201 457 357 63 89 118 200 93 190 -8 -3 -15 -1 -15 4 0 18 -16 10 -27 -12z"/>
<path d="M2478 1624 c-30 -16 -58 -61 -58 -94 0 -11 9 -28 20 -37 26 -22 26
-49 -1 -63 -15 -9 -19 -19 -17 -42 3 -27 9 -33 46 -46 56 -18 101 -9 136 27
30 31 37 75 17 107 -11 17 -11 16 -5 -6 11 -38 7 -61 -16 -85 -28 -30 -64 -39
-105 -25 -38 12 -77 60 -50 60 8 0 15 4 15 9 0 11 30 19 48 14 6 -3 12 -9 12
-14 0 -4 -8 -5 -17 -2 -16 6 -16 5 -4 -10 24 -30 81 -16 81 20 0 7 -25 24 -55
38 -88 39 -95 107 -15 147 24 13 29 18 15 18 -11 -1 -32 -7 -47 -16z"/>
<path d="M2748 1633 c23 -2 59 -2 80 0 20 2 1 4 -43 4 -44 0 -61 -2 -37 -4z"/>
<path d="M4077 1577 c-90 -206 -316 -423 -545 -522 -234 -102 -516 -121 -761
-51 -30 8 -58 13 -63 10 -4 -3 -8 -1 -8 4 0 6 -20 16 -45 23 -25 7 -45 17 -45
22 0 4 -4 6 -9 3 -5 -4 -11 -2 -13 3 -1 5 -10 11 -18 13 -8 2 -17 5 -20 8 -3
3 -29 21 -59 40 -29 18 -71 49 -93 67 -22 18 -45 30 -51 26 -7 -3 -9 -3 -5 2
4 4 -22 40 -59 79 -72 77 -142 179 -173 250 -20 48 -40 60 -40 25 0 -53 123
-244 213 -330 53 -52 113 -99 126 -99 6 0 11 -5 11 -10 0 -6 8 -14 18 -17 9
-4 35 -19 57 -34 34 -22 156 -75 255 -110 14 -5 69 -16 124 -25 175 -29 458
-8 576 43 8 3 21 7 29 9 29 6 164 77 234 124 83 55 237 195 237 215 0 8 6 18
13 22 26 15 103 140 126 202 30 82 22 87 -12 8z"/>
<path d="M3106 1599 c-28 -31 -28 -31 -47 -3 -10 16 -19 26 -19 21 0 -4 12
-26 27 -48 28 -43 28 -43 64 24 24 45 12 48 -25 6z"/>
<path d="M3248 1617 c-15 -15 -17 -35 -15 -132 2 -65 8 -120 14 -126 18 -18
85 -29 136 -22 79 10 64 23 -27 23 -85 0 -85 0 -88 137 -3 129 -4 136 -20 120z"/>
<path d="M3588 1623 c18 -2 45 -2 60 0 15 2 0 4 -33 4 -33 0 -45 -2 -27 -4z"/>
<path d="M2683 1604 c-8 -21 9 -48 33 -52 33 -6 44 -33 44 -106 0 -81 5 -93
40 -96 50 -4 50 -5 50 88 0 94 9 115 55 124 14 2 20 12 22 33 1 20 0 23 -4 8
-4 -19 -11 -23 -44 -23 -39 0 -39 0 -39 -110 0 -110 0 -110 -25 -110 -25 0
-25 0 -25 110 0 110 0 110 -40 110 -33 0 -40 3 -40 20 0 24 -18 27 -27 4z"/>
<path d="M3475 1604 c-12 -12 -14 -25 -9 -48 5 -17 9 -57 10 -88 4 -124 1
-115 40 -128 42 -14 150 -8 167 9 8 8 -15 11 -81 11 -92 0 -92 0 -92 130 0 73
-4 130 -9 130 -5 0 -17 -7 -26 -16z"/>
<path d="M3680 1595 c0 -24 -3 -25 -60 -25 -57 0 -60 -1 -60 -25 0 -23 4 -25
43 -25 25 0 37 4 29 8 -8 6 -1 13 23 25 26 13 35 23 35 42 0 14 -2 25 -5 25
-3 0 -5 -11 -5 -25z"/>
<path d="M2187 1548 c44 -76 82 -128 94 -128 5 0 -9 24 -31 53 -22 28 -49 71
-60 95 -11 23 -24 42 -30 42 -5 0 7 -28 27 -62z"/>
<path d="M2957 1589 c-3 -12 -3 -18 0 -15 4 3 11 -2 17 -13 6 -10 19 -30 30
-45 21 -30 39 -111 30 -138 -6 -19 26 -32 67 -26 22 3 24 9 29 68 4 47 13 76
31 105 32 50 51 85 46 85 -3 0 -23 -28 -46 -63 -37 -57 -41 -70 -41 -125 0
-59 -1 -62 -25 -62 -24 0 -25 3 -25 56 0 49 -6 66 -42 125 -44 72 -62 84 -71
48z"/>
<path d="M2620 1583 c0 -16 -32 -25 -44 -13 -16 16 -66 12 -73 -6 -7 -19 13
-39 47 -49 16 -4 20 -3 12 3 -10 7 -6 12 17 22 34 14 57 37 47 47 -3 3 -6 2
-6 -4z"/>
<path d="M3661 1493 c-1 -21 -6 -23 -51 -23 -49 0 -50 -1 -50 -30 0 -17 5 -30
13 -30 6 0 22 -3 35 -6 13 -4 22 -2 22 5 0 6 -9 11 -21 11 -33 0 -16 25 20 28
34 4 46 19 38 49 -4 14 -5 13 -6 -4z"/>
<path d="M3322 1458 c-2 -48 -2 -48 56 -46 57 2 57 2 5 5 -52 4 -52 4 -56 46
-4 42 -4 42 -5 -5z"/>
<path d="M2270 1387 c0 -19 172 -174 239 -214 63 -38 57 -25 -9 20 -35 23
-101 77 -147 121 -46 43 -83 76 -83 73z"/>
<path d="M2330 1377 c0 -11 158 -142 199 -165 57 -32 52 -22 -9 17 -27 18 -50
37 -50 42 0 5 -4 9 -10 9 -5 0 -18 7 -27 15 -80 68 -103 87 -103 82z"/>
<path d="M2624 1135 c11 -8 25 -15 30 -15 6 0 2 7 -8 15 -11 8 -25 15 -30 15
-6 0 -2 -7 8 -15z"/>
</g>
</svg>
